<?xml version="1.0" encoding="utf-8"?>
<!-- Generator: Adobe Illustrator 21.1.0, SVG Export Plug-In . SVG Version: 6.00 Build 0)  -->
<svg version="1.1" id="Layer_1" xmlns="http://www.w3.org/2000/svg" xmlns:xlink="http://www.w3.org/1999/xlink" x="0px" y="0px"
	 viewBox="0 0 199.5 199.5" style="enable-background:new 0 0 199.5 199.5;" xml:space="preserve">
<style type="text/css">
	.st0{fill:#33006F;}
	.st1{fill:none;stroke:#FFFFFF;stroke-width:7;stroke-miterlimit:10;}
	.st2{fill:#FFFFFF;}
</style>
<title>OSP</title>
<circle class="st0" cx="100.2" cy="101.6" r="95.2"/>
<circle class="st1" cx="100.2" cy="101.6" r="84.2"/>
<g>
	<path class="st2" d="M29.9,101.8c-0.1-4.2,0.6-8.3,2-12.3c1.2-3.5,3.1-6.7,5.6-9.4c2.4-2.6,5.3-4.7,8.5-6c3.5-1.4,7.2-2.2,10.9-2.1
		c3.8-0.1,7.5,0.5,11,1.9c3.3,1.3,6.2,3.3,8.6,5.9c2.5,2.7,4.4,5.9,5.6,9.4c1.4,3.9,2.1,8.1,2,12.2c0.1,4.1-0.6,8.2-2,12
		c-1.3,3.4-3.2,6.6-5.6,9.3c-2.4,2.6-5.3,4.7-8.6,6.1c-3.5,1.5-7.2,2.3-11,2.3c-3.7,0-7.4-0.7-10.9-2.1c-3.2-1.4-6.2-3.4-8.5-6
		c-2.5-2.7-4.4-5.8-5.6-9.3C30.5,110,29.8,105.9,29.9,101.8z M39.4,101.2c0,2.8,0.4,5.7,1.3,8.4c0.8,2.4,2,4.6,3.6,6.6
		c1.5,1.8,3.4,3.3,5.5,4.4c2.2,1.1,4.7,1.6,7.2,1.6c2.5,0,5-0.5,7.2-1.6c2.1-1,4.1-2.5,5.6-4.4c1.6-2,2.8-4.2,3.6-6.6
		c0.9-2.7,1.3-5.5,1.3-8.4c0-2.7-0.4-5.3-1.3-7.9c-0.8-2.3-2-4.5-3.6-6.4c-5.9-7.1-16.5-8-23.5-2c-0.7,0.6-1.4,1.3-2,2
		c-1.6,1.9-2.8,4.1-3.6,6.4C39.8,95.9,39.4,98.5,39.4,101.2z"/>
	<path class="st2" d="M118,85.6c-0.9-1.5-2.3-2.7-3.9-3.4c-1.6-0.7-3.3-1.1-5.1-1.1c-1,0-2.1,0.1-3.1,0.4c-1,0.3-1.9,0.7-2.7,1.3
		c-0.8,0.6-1.5,1.4-1.9,2.3c-0.5,1-0.8,2.2-0.7,3.3c-0.1,1.7,0.6,3.3,1.8,4.4c1.4,1.1,2.9,2,4.5,2.6c1.8,0.7,3.7,1.5,5.9,2.1
		c2.1,0.7,4.1,1.6,5.9,2.9c1.8,1.3,3.4,2.9,4.5,4.9c1.3,2.5,1.9,5.2,1.8,8c0.1,2.7-0.5,5.4-1.5,7.9c-0.9,2.1-2.3,4.1-4.1,5.6
		c-1.7,1.5-3.8,2.6-6,3.3c-2.3,0.8-4.7,1.1-7.2,1.1c-3.2,0-6.3-0.6-9.2-1.7c-3-1.2-5.7-3.3-7.6-5.9l6.9-7.3c1.1,1.8,2.6,3.3,4.4,4.3
		c1.7,1,3.7,1.5,5.7,1.5c1.1,0,2.2-0.2,3.2-0.5c1-0.3,2-0.8,2.9-1.4c0.9-0.6,1.6-1.5,2.1-2.4c0.5-1,0.8-2.2,0.8-3.4
		c0.1-1.8-0.5-3.5-1.8-4.8c-1.3-1.2-2.8-2.2-4.5-2.9c-1.8-0.8-3.7-1.5-5.9-2.2c-2.1-0.7-4.1-1.6-5.9-2.9c-1.8-1.2-3.4-2.9-4.5-4.8
		c-1.3-2.4-1.9-5.2-1.8-8c-0.1-2.6,0.5-5.2,1.6-7.6c1-2,2.5-3.9,4.3-5.3c1.8-1.4,3.8-2.5,6-3.1c2.3-0.7,4.6-1,7-1
		c2.7,0,5.3,0.5,7.9,1.4c2.6,0.9,4.9,2.5,6.8,4.5L118,85.6z"/>
	<path class="st2" d="M134.4,73.4h17.2c2.4,0,4.8,0.3,7.1,0.8c2.2,0.5,4.3,1.4,6.1,2.7c1.8,1.3,3.2,3,4.2,5c1.1,2.5,1.6,5.1,1.6,7.8
		c0.1,3-0.4,5.9-1.7,8.6c-1,2.1-2.6,3.8-4.5,5.1c-2,1.2-4.2,2.1-6.5,2.4c-2.6,0.4-5.2,0.6-7.8,0.6h-6.5v23.3h-9.1L134.4,73.4z
		 M149.1,97.9c1.3,0,2.6-0.1,4.1-0.2c1.3-0.1,2.6-0.4,3.9-1c1.2-0.5,2.1-1.3,2.9-2.4c0.8-1.3,1.2-2.9,1.1-4.5c0.1-1.5-0.3-2.9-1-4.2
		c-0.6-1-1.5-1.8-2.6-2.4c-1.1-0.6-2.3-0.9-3.5-1.1c-1.2-0.2-2.5-0.2-3.8-0.2h-6.5v15.8H149.1z"/>
</g>
</svg>
